<svg xmlns="http://www.w3.org/2000/svg" width="32.64" height="30" viewBox="0 0 32.64 30">
  <g id="balance" transform="translate(0 -20.704)">
    <g id="Group_29" data-name="Group 29" transform="translate(21.389 20.704)">
      <g id="Group_28" data-name="Group 28" transform="translate(0 0)">
        <path id="Path_15" data-name="Path 15" d="M346.122,31.4h-.436c-.425-2.154-2.6-5.946-3.566-7.552a1.723,1.723,0,1,0-1.947,0c-.964,1.606-3.141,5.4-3.566,7.552h-.436a.65.65,0,0,0-.65.65,5.625,5.625,0,1,0,11.25,0A.65.65,0,0,0,346.122,31.4ZM341.147,22a.422.422,0,1,1-.422.422A.423.423,0,0,1,341.147,22Zm0,2.748a33.446,33.446,0,0,1,3.217,6.647h-6.431A32.635,32.635,0,0,1,341.146,24.752Zm0,11.622a4.332,4.332,0,0,1-4.276-3.675h8.552A4.332,4.332,0,0,1,341.147,36.374Z" transform="translate(-335.522 -20.704)" fill="#fff"/>
      </g>
    </g>
    <g id="Group_31" data-name="Group 31" transform="translate(0 22.282)">
      <g id="Group_30" data-name="Group 30">
        <path id="Path_16" data-name="Path 16" d="M22.107,70.143H20.388V68.492a.65.65,0,0,0-.65-.65H18.087V49.679a2.46,2.46,0,0,0,.731-1.63l2.749-.592a.65.65,0,1,0-.274-1.271l-2.756.593a2.466,2.466,0,0,0-4.647,1L7.016,49.259a1.722,1.722,0,1,0-2.365,2.434c-.964,1.606-3.141,5.4-3.566,7.552H.65A.65.65,0,0,0,0,59.9a5.625,5.625,0,0,0,11.25,0,.65.65,0,0,0-.65-.65h-.436C9.74,57.092,7.563,53.3,6.6,51.693a1.725,1.725,0,0,0,.731-1.172l6.83-1.47a2.482,2.482,0,0,0,.461.627V67.842H12.969a.65.65,0,0,0-.65.65v1.651H10.6a.65.65,0,0,0-.65.65V73.23a.65.65,0,0,0,.65.65H22.107a.65.65,0,0,0,.65-.65V70.793A.65.65,0,0,0,22.107,70.143ZM5.625,49.851a.422.422,0,1,1-.422.422A.423.423,0,0,1,5.625,49.851Zm0,14.369a4.332,4.332,0,0,1-4.276-3.675H9.9A4.332,4.332,0,0,1,5.625,64.22Zm3.216-4.975H2.411A32.636,32.636,0,0,1,5.624,52.6,33.447,33.447,0,0,1,8.841,59.245Zm7.512-12.487a1.167,1.167,0,1,1-1.167,1.167A1.168,1.168,0,0,1,16.354,46.758Zm.433,3.6V67.841h-.866V50.354a2.433,2.433,0,0,0,.866,0ZM13.62,69.142h5.468v1H13.62v-1Zm7.837,3.438H11.25V71.443H21.457Z" transform="translate(0 -45.458)" fill="#fff"/>
      </g>
    </g>
    <g id="Group_33" data-name="Group 33" transform="translate(22.811 22.497)">
      <g id="Group_32" data-name="Group 32" transform="translate(0 0)">
        <path id="Path_17" data-name="Path 17" d="M359.574,49.346a.65.65,0,0,0-.772-.5l-.474.1a.65.65,0,1,0,.274,1.271l.474-.1A.65.65,0,0,0,359.574,49.346Z" transform="translate(-357.815 -48.833)" fill="#fff"/>
      </g>
    </g>
  </g>
</svg>
