<svg xmlns="http://www.w3.org/2000/svg" width="22" height="20" viewBox="0 0 22 20">
  <g id="balance" transform="translate(0 -20.704)">
    <g id="Group_29" data-name="Group 29" transform="translate(14.5 20.704)">
      <g id="Group_28" data-name="Group 28" transform="translate(0 0)">
        <path id="Path_15" data-name="Path 15" d="M342.589,27.834h-.29a21.561,21.561,0,0,0-2.377-5.035,1.148,1.148,0,1,0-1.3,0,21.561,21.561,0,0,0-2.377,5.035h-.29a.433.433,0,0,0-.433.433,3.75,3.75,0,1,0,7.5,0A.433.433,0,0,0,342.589,27.834Zm-3.317-6.263a.281.281,0,1,1-.281.282A.282.282,0,0,1,339.272,21.571Zm0,1.832a22.3,22.3,0,0,1,2.145,4.431h-4.287A21.757,21.757,0,0,1,339.271,23.4Zm0,7.748a2.888,2.888,0,0,1-2.851-2.45h5.7A2.888,2.888,0,0,1,339.272,31.151Z" transform="translate(-335.522 -20.704)" fill="#a8a8a8"/>
      </g>
    </g>
    <g id="Group_31" data-name="Group 31" transform="translate(0 21.756)">
      <g id="Group_30" data-name="Group 30">
        <path id="Path_16" data-name="Path 16" d="M14.738,61.915H13.592v-1.1a.433.433,0,0,0-.433-.433h-1.1V48.272a1.64,1.64,0,0,0,.487-1.086l1.833-.394a.433.433,0,1,0-.182-.848l-1.837.4a1.644,1.644,0,0,0-3.1.667l-4.583.986A1.148,1.148,0,1,0,3.1,49.615,21.559,21.559,0,0,0,.724,54.65H.434A.433.433,0,0,0,0,55.083a3.75,3.75,0,0,0,7.5,0,.433.433,0,0,0-.433-.433h-.29A21.56,21.56,0,0,0,4.4,49.615a1.15,1.15,0,0,0,.487-.781l4.553-.98a1.655,1.655,0,0,0,.307.418V60.38h-1.1a.433.433,0,0,0-.433.433v1.1H7.067a.433.433,0,0,0-.433.433v1.624a.433.433,0,0,0,.433.433h7.671a.433.433,0,0,0,.433-.433V62.348A.433.433,0,0,0,14.738,61.915ZM3.75,48.387a.281.281,0,1,1-.282.282A.282.282,0,0,1,3.75,48.387Zm0,9.58A2.888,2.888,0,0,1,.9,55.516H6.6A2.888,2.888,0,0,1,3.75,57.966ZM5.894,54.65H1.607a21.757,21.757,0,0,1,2.142-4.431A22.3,22.3,0,0,1,5.894,54.65ZM10.9,46.325a.778.778,0,1,1-.778.778A.779.779,0,0,1,10.9,46.325Zm.289,2.4V60.38h-.577V48.722a1.622,1.622,0,0,0,.577,0ZM9.08,61.247h3.646v.667H9.08v-.667ZM14.3,63.539H7.5v-.758h6.8Z" transform="translate(0 -45.458)" fill="#a8a8a8"/>
      </g>
    </g>
    <g id="Group_33" data-name="Group 33" transform="translate(15.385 21.899)">
      <g id="Group_32" data-name="Group 32" transform="translate(0 0)">
        <path id="Path_17" data-name="Path 17" d="M358.988,49.175a.433.433,0,0,0-.515-.333l-.316.068a.433.433,0,1,0,.182.848l.316-.068A.433.433,0,0,0,358.988,49.175Z" transform="translate(-357.815 -48.833)" fill="#a8a8a8"/>
      </g>
    </g>
  </g>
</svg>
