<svg xmlns="http://www.w3.org/2000/svg" width="25" height="21.246" viewBox="0 0 25 21.246">
  <path id="cart" d="M4.866,7.839,4.519,5.756H3.274a1.666,1.666,0,1,0,0,.833h.539l.208,1.25H4.009l.092.484h0l1.066,5.571L5.6,16.17h0l.559,2.922a2.141,2.141,0,0,0-1.986,1.864,2.088,2.088,0,0,0,2.073,2.3h.833a2.5,2.5,0,0,0,5,0h4.582a2.5,2.5,0,0,0,5,0h1.666a.417.417,0,0,0,0-.833H21.516a2.5,2.5,0,0,0-4.707,0H11.935a2.5,2.5,0,0,0-4.707,0H6.249a1.254,1.254,0,0,1-.926-.414,1.236,1.236,0,0,1-.317-.965A1.305,1.305,0,0,1,6.327,19.92h2.9l4.517,0h9.175A2.08,2.08,0,0,0,25,17.837v-10Zm-3.2-.833A.833.833,0,1,1,2.5,6.172.834.834,0,0,1,1.666,7.005Zm17.5,14.58A1.666,1.666,0,1,1,17.5,23.252,1.668,1.668,0,0,1,19.163,21.586Zm-9.581,0a1.666,1.666,0,1,1-1.666,1.666A1.668,1.668,0,0,1,9.581,21.586Zm14.586-10H21.246V8.667h2.921Zm-6.671,7.5V16.171h2.916v2.912Zm0-3.746V12.421h2.916v2.916ZM10,19.085V16.17h2.916v2.914Zm0-3.748V12.421h2.916v2.916ZM5.734,12.421H9.165v2.916H6.292Zm14.678-.833H17.5V8.672h2.916Zm-3.749,0H13.747V8.669h2.916ZM12.914,8.672v2.916H10V8.672Zm.833,3.749h2.916v2.916H13.747Zm7.5,0h2.916v2.916H21.246ZM9.165,8.671v2.917H5.575L5.016,8.672Zm-2.713,7.5H9.165v2.915H7.01Zm7.3,0h2.916v2.913H13.747Zm9.175,2.911H21.246V16.17h2.921v1.666A1.246,1.246,0,0,1,22.922,19.081Z" transform="translate(0 -4.506)" opacity="0.3"/>
</svg>
