<svg xmlns="http://www.w3.org/2000/svg" width="20.49" height="15" viewBox="0 0 20.49 15">
  <g id="delivery-truck" transform="translate(0 -68.597)">
    <path id="Path_149" data-name="Path 149" d="M334.94,164.8h-4.231v7.668h6.932v-3.451l-.808-2.794a1.97,1.97,0,0,0-1.893-1.423" transform="translate(-317.475 -92.353)" fill="#ff7058"/>
    <path id="Path_150" data-name="Path 150" d="M359.73,192.082l-.72-2.491a1.014,1.014,0,0,0-.969-.728h-3.268v3.218Z" transform="translate(-340.576 -115.454)" fill="#84dbff"/>
    <path id="Path_151" data-name="Path 151" d="M359.69,192.05h-4.959v-3.218Z" transform="translate(-340.536 -115.424)" fill="#cdd6e0"/>
    <path id="Path_152" data-name="Path 152" d="M359.73,192.082l-.72-2.491a1.014,1.014,0,0,0-.969-.728h-3.268Z" transform="translate(-340.576 -115.454)" fill="#f2f2f2"/>
    <path id="Path_153" data-name="Path 153" d="M1.281,68.6H11.953a1.281,1.281,0,0,1,1.281,1.281V80.114H0V69.878A1.28,1.28,0,0,1,1.281,68.6" fill="#ffd15c"/>
    <path id="Path_154" data-name="Path 154" d="M118.015,68.651v3.384l-.5-.5-.519.519-.519-.519-.519.519-.519-.519-.525.519-.518-.519-.5.5v-3.39Z" transform="translate(-109.341 -0.052)" fill="#f2f2f2"/>
    <path id="Path_155" data-name="Path 155" d="M20.531,320.36v1.447H.043V320.36H2.181a2.934,2.934,0,0,1,5.122,0h6.881a2.93,2.93,0,0,1,5.117,0Z" transform="translate(-0.041 -240.247)" fill="#334a5e"/>
    <path id="Path_156" data-name="Path 156" d="M370.318,343.282a2.045,2.045,0,1,1-2.045-2.045,2.045,2.045,0,0,1,2.045,2.045" transform="translate(-351.574 -261.73)" fill="#40596b"/>
    <path id="Path_157" data-name="Path 157" d="M398.432,372.639a.822.822,0,1,1-.821-.821.821.821,0,0,1,.821.821" transform="translate(-380.911 -291.087)" fill="#acb3ba"/>
    <path id="Path_158" data-name="Path 158" d="M70.426,343.282a2.045,2.045,0,1,1-2.045-2.045,2.045,2.045,0,0,1,2.045,2.045" transform="translate(-63.681 -261.73)" fill="#40596b"/>
    <path id="Path_159" data-name="Path 159" d="M98.55,372.639a.821.821,0,1,1-.821-.821.821.821,0,0,1,.821.821" transform="translate(-93.029 -291.087)" fill="#acb3ba"/>
  </g>
</svg>
