<svg xmlns="http://www.w3.org/2000/svg" width="11.293" height="15" viewBox="0 0 11.293 15">
  <g id="flame" transform="translate(-63.168)">
    <path id="Path_146" data-name="Path 146" d="M65.433,13.645a10.586,10.586,0,0,1-1.815-2.566,5.818,5.818,0,0,1-.344-3.349,7.222,7.222,0,0,1,1.44-3.1,2.985,2.985,0,0,0,.751,2.191A5.206,5.206,0,0,1,66.654,2.5,8.945,8.945,0,0,1,70.471,0a3.085,3.085,0,0,0-.532,2.942,12.266,12.266,0,0,0,1.408,2.785,6.216,6.216,0,0,1,1.064,2.879,10.066,10.066,0,0,0,.782-1.659,3.277,3.277,0,0,0,.125-1.815,4.654,4.654,0,0,1,1.033,2.253,9.47,9.47,0,0,1,.031,2.66,6.653,6.653,0,0,1-.908,2.785,5.226,5.226,0,0,1-2.723,2.034A6.189,6.189,0,0,1,65.433,13.645Z" fill="#f3705a"/>
    <path id="Path_147" data-name="Path 147" d="M153.027,223.948a3.08,3.08,0,0,0,3.693-4.381c0-.031-.031-.031-.031-.063a3.16,3.16,0,0,1-.782,2.754,2.923,2.923,0,0,0-.282-2.378c-.376-.72-.908-1.377-1.314-2.065a3.326,3.326,0,0,1-.532-2.347,4.127,4.127,0,0,0-1.5,2.316,4.189,4.189,0,0,0,.313,2.754,2.057,2.057,0,0,1-.845-1.5,3.222,3.222,0,0,0-.782,2.159A3.188,3.188,0,0,0,153.027,223.948Z" transform="translate(-85.216 -209.145)" fill="#ffd15c"/>
  </g>
</svg>
