<svg xmlns="http://www.w3.org/2000/svg" width="19.532" height="30" viewBox="0 0 19.532 30">
  <g id="frame" transform="translate(-90.326 -14)">
    <g id="Group_35" data-name="Group 35" transform="translate(95.634 18.518)">
      <g id="Group_34" data-name="Group 34" transform="translate(0)">
        <path id="Path_18" data-name="Path 18" d="M196.836,265.452h-1.77a.518.518,0,0,0,0,1.035h1.77a.518.518,0,0,0,0-1.035Z" transform="translate(-194.549 -265.452)" fill="#fff"/>
      </g>
    </g>
    <g id="Group_37" data-name="Group 37" transform="translate(90.326 14)">
      <g id="Group_36" data-name="Group 36" transform="translate(0 0)">
        <path id="Path_19" data-name="Path 19" d="M108.341,1.5h-7.635V.517a.518.518,0,0,0-.651-.5L89.71,2.776a.518.518,0,0,0-.384.5V4.948a.518.518,0,0,0,1.035,0V3.674L99.67,1.191v27.66l-9.309-1.862V6.692a.518.518,0,0,0-1.035,0V27.413a.517.517,0,0,0,.416.507l10.344,2.069a.518.518,0,0,0,.619-.507V28.5h4.77a.518.518,0,1,0,0-1.035h-4.77V25.985h5.123a.518.518,0,0,0,.518-.518V4.532a.518.518,0,0,0-.518-.518h-5.123V2.538h7.117V27.462h-.738a.518.518,0,1,0,0,1.035h1.256a.518.518,0,0,0,.518-.518V2.02A.517.517,0,0,0,108.341,1.5Zm-3.03,3.547v19.9h-4.605V5.049Z" transform="translate(-89.326 0)" fill="#fff"/>
      </g>
    </g>
  </g>
</svg>
