<svg xmlns="http://www.w3.org/2000/svg" width="16.086" height="15" viewBox="0 0 16.086 15">
  <g id="gift" transform="translate(0 -17.282)">
    <path id="Path_160" data-name="Path 160" d="M48.4,227.716H35.008a.254.254,0,0,0-.254.254v7.881a.254.254,0,0,0,.254.254H48.4a.254.254,0,0,0,.254-.254V227.97A.254.254,0,0,0,48.4,227.716Z" transform="translate(-33.662 -203.823)" fill="#f7434c"/>
    <path id="Path_161" data-name="Path 161" d="M48.4,227.716H35.008a.254.254,0,0,0-.254.254v1.016h13.9V227.97A.254.254,0,0,0,48.4,227.716Z" transform="translate(-33.662 -203.823)" fill="#db2e37"/>
    <path id="Path_162" data-name="Path 162" d="M209.467,227.716h-2.6a.254.254,0,0,0-.254.254v7.881a.254.254,0,0,0,.254.254h2.6a.254.254,0,0,0,.254-.254V227.97A.254.254,0,0,0,209.467,227.716Z" transform="translate(-200.127 -203.823)" fill="#ffdb57"/>
    <path id="Path_163" data-name="Path 163" d="M209.467,227.716h-2.6a.254.254,0,0,0-.254.254v1.011h3.1V227.97A.254.254,0,0,0,209.467,227.716Z" transform="translate(-200.127 -203.823)" fill="#f5ba3d"/>
    <path id="Path_164" data-name="Path 164" d="M287.168,19.2a5.133,5.133,0,0,0-1.051-1.7.775.775,0,0,0-.582-.223c-.763.018-2.005.975-3.693,2.845a.254.254,0,0,0-.066.17V21.64a.254.254,0,0,0,.254.254h3.907a1.333,1.333,0,0,0,1.378-.779A2.684,2.684,0,0,0,287.168,19.2Z" transform="translate(-272.922 0)" fill="#ffdb57"/>
    <path id="Path_165" data-name="Path 165" d="M318.64,78.936a.252.252,0,0,0-.033-.073c-.383-.58-1.212-.363-1.84-.079a6.275,6.275,0,0,0-2.608,2.01.254.254,0,0,0,.213.392h2.891a1.445,1.445,0,0,0,1.221-.505A1.983,1.983,0,0,0,318.64,78.936Z" transform="translate(-304.25 -59.292)" fill="#ef9325"/>
    <path id="Path_166" data-name="Path 166" d="M55.769,20.128c-1.688-1.87-2.931-2.827-3.693-2.845a.774.774,0,0,0-.582.223,5.132,5.132,0,0,0-1.051,1.7,2.685,2.685,0,0,0-.146,1.914,1.334,1.334,0,0,0,1.378.779H55.58a.254.254,0,0,0,.254-.254V20.3A.253.253,0,0,0,55.769,20.128Z" transform="translate(-48.601 -0.001)" fill="#ffdb57"/>
    <path id="Path_167" data-name="Path 167" d="M54.734,80.795a6.275,6.275,0,0,0-2.608-2.01c-.628-.284-1.456-.5-1.84.079a.255.255,0,0,0-.033.073,1.983,1.983,0,0,0,.156,1.745,1.445,1.445,0,0,0,1.221.505h2.891a.254.254,0,0,0,.213-.392Z" transform="translate(-48.558 -59.293)" fill="#ef9325"/>
    <path id="Path_168" data-name="Path 168" d="M216.437,97.175h-2.128a.254.254,0,0,0-.254.254v1.595a.254.254,0,0,0,.254.254h2.128a.254.254,0,0,0,.254-.254V97.429A.254.254,0,0,0,216.437,97.175Z" transform="translate(-207.33 -77.383)" fill="#f5ba3d"/>
    <path id="Path_169" data-name="Path 169" d="M15.832,147.943H.254A.254.254,0,0,0,0,148.2V150.7a.254.254,0,0,0,.254.254H15.832a.254.254,0,0,0,.254-.254V148.2A.254.254,0,0,0,15.832,147.943Z" transform="translate(0 -126.556)" fill="#f7434c"/>
    <rect id="Rectangle_66" data-name="Rectangle 66" width="3.902" height="3.014" transform="translate(6.092 21.387)" fill="#ffdb57"/>
  </g>
</svg>
