<svg xmlns="http://www.w3.org/2000/svg" width="37.188" height="35" viewBox="0 0 37.188 35">
  <path id="Path_14" data-name="Path 14" d="M36.974,19.824a1.193,1.193,0,0,0-.928-.51L12.978,18.32a1.193,1.193,0,0,0-.1,2.384l21.507.927L30.153,34.825H11.335l-3.4-18.511a1.193,1.193,0,0,0-.737-.895L1.63,13.231a1.193,1.193,0,0,0-.873,2.221L5.708,17.4l3.46,18.836a1.194,1.194,0,0,0,1.174.978h.574L9.6,40.851a.994.994,0,0,0,.935,1.331h.919a3.58,3.58,0,1,0,5.321,0h7.8a3.579,3.579,0,1,0,5.321,0h1.118a.994.994,0,1,0,0-1.989H11.955l1.074-2.983H31.023a1.193,1.193,0,0,0,1.136-.829L37.131,20.87A1.191,1.191,0,0,0,36.974,19.824ZM14.12,46.16a1.591,1.591,0,1,1,1.591-1.591A1.593,1.593,0,0,1,14.12,46.16Zm13.125,0a1.591,1.591,0,1,1,1.591-1.591A1.592,1.592,0,0,1,27.245,46.16Z" transform="translate(0 -13.148)" fill="#fff"/>
</svg>
