<svg xmlns="http://www.w3.org/2000/svg" width="24.421" height="25" viewBox="0 0 24.421 25">
  <path id="showcase" d="M19.338,0H5.083A5.089,5.089,0,0,0,0,5.083v19.18A.737.737,0,0,0,.737,25H3.3a.737.737,0,0,0,.737-.737V22.719H20.381v1.545a.737.737,0,0,0,.737.737h2.567a.737.737,0,0,0,.737-.737V5.083A5.089,5.089,0,0,0,19.338,0ZM1.473,21.245V19.993H22.948v1.253ZM7.914,4.489v.619H5.437V4.489ZM4.845,6.581H8.5v.673H4.845Zm-.5,2.146H9.008v.734H4.342Zm18.606,2.207v7.585h-.791v-2.14a2.106,2.106,0,0,0-2.1-2.1h-.161v-.4a.737.737,0,0,0-1.474,0v.4h-.161a2.106,2.106,0,0,0-2.1,2.1v2.14h-.942v-2.14a2.106,2.106,0,0,0-2.1-2.1h-.161v-.4a.737.737,0,0,0-1.473,0v.4h-.161a2.106,2.106,0,0,0-2.1,2.1v2.14H8.368v-2.14a2.106,2.106,0,0,0-2.1-2.1H6.1v-.4a.737.737,0,0,0-1.473,0v.4H4.469a2.106,2.106,0,0,0-2.1,2.1v2.14H1.473V10.934ZM19.06,4.489v.619H16.583V4.489ZM15.992,6.581h3.659v.673H15.992Zm-.5,2.146h4.666v.734H15.489Zm4.564,7.021a.631.631,0,0,1,.627.564H17.631a.631.631,0,0,1,.627-.564Zm-2.425,2.037h3.056v.733H17.628Zm-4.519-2.037a.631.631,0,0,1,.627.564H10.686a.631.631,0,0,1,.627-.564Zm-2.425,2.037h3.056v.733H10.683ZM6.264,15.749a.631.631,0,0,1,.627.564H3.842a.631.631,0,0,1,.627-.564ZM3.839,17.786H6.894v.733H3.839ZM1.473,5.083a3.614,3.614,0,0,1,3.61-3.61H19.338a3.614,3.614,0,0,1,3.61,3.61V9.461h-1.32V7.991a.736.736,0,0,0-.5-.7V5.845a.737.737,0,0,0-.591-.722V3.753a.737.737,0,0,0-.737-.737H18.559V2.724a.737.737,0,0,0-1.473,0v.291H15.847a.737.737,0,0,0-.737.737v1.37a.737.737,0,0,0-.591.722V7.292a.737.737,0,0,0-.5.7v1.47H10.482V7.991a.736.736,0,0,0-.5-.7V5.845a.737.737,0,0,0-.591-.722V3.753a.737.737,0,0,0-.737-.737H7.412V2.724a.737.737,0,0,0-1.473,0v.291H4.7a.737.737,0,0,0-.737.737v1.37a.737.737,0,0,0-.591.722V7.292a.737.737,0,0,0-.5.7v1.47h-1.4ZM2.567,23.527H1.473v-.808H2.567Zm20.381,0H21.855v-.808h1.093Zm0,0" transform="translate(0)" opacity="0.3"/>
</svg>
