<svg xmlns="http://www.w3.org/2000/svg" width="25" height="13.769" viewBox="0 0 25 13.769">
  <path id="Union_1" data-name="Union 1" d="M23.326,13.364v-.459H1.674v.459a.4.4,0,1,1-.81,0v-.459H.837A.838.838,0,0,1,0,12.068V1.7A1.7,1.7,0,0,1,1.7,0H23.3A1.7,1.7,0,0,1,25,1.7V12.068a.838.838,0,0,1-.837.837h-.027v.459a.4.4,0,0,1-.81,0ZM.81,12.068a.027.027,0,0,0,.027.027H24.163a.027.027,0,0,0,.027-.027V9.449H.81ZM.81,1.7V8.639H24.19V1.7A.892.892,0,0,0,23.3.81H1.7A.892.892,0,0,0,.81,1.7ZM2.133,7.289a.4.4,0,0,1,0-.81H3.456V6.021a.4.4,0,0,1,.81,0v.459h.918V6.021a.4.4,0,0,1,.81,0v.459h.918V5.589a.4.4,0,0,1,.81,0v.891h.918V5.589a.4.4,0,1,1,.81,0v.891h.918V6.021a.4.4,0,0,1,.81,0v.459H12.1V6.021a.4.4,0,0,1,.81,0v.459h.918V5.589a.4.4,0,0,1,.81,0v.891h.918V6.021a.4.4,0,0,1,.81,0v.459h.918V5.589a.4.4,0,0,1,.81,0v.891h.918V5.589a.4.4,0,0,1,.81,0v.891h.918V6.021a.4.4,0,1,1,.81,0v.459h1.323a.4.4,0,0,1,0,.81Zm0-3.024a.4.4,0,0,1,0-.81H3.456V3a.4.4,0,1,1,.81,0v.459h.918V3a.4.4,0,1,1,.81,0v.459h.918V2.565a.4.4,0,1,1,.81,0v.891h.918V2.565a.4.4,0,1,1,.81,0v.891h.918V3a.4.4,0,1,1,.81,0v.459H12.1V3a.4.4,0,1,1,.81,0v.459h.918V2.565a.4.4,0,1,1,.81,0v.891h.918V3a.4.4,0,1,1,.81,0v.459h.918V2.565a.4.4,0,1,1,.81,0v.891h.918V2.565a.4.4,0,1,1,.81,0v.891h.918V3a.4.4,0,1,1,.81,0v.459h1.323a.4.4,0,0,1,0,.81Z" opacity="0.3"/>
</svg>
