<svg xmlns="http://www.w3.org/2000/svg" width="25" height="24.988" viewBox="0 0 25 24.988">
  <path id="Union_3" data-name="Union 3" d="M17.921,0a.416.416,0,0,0,0,.833h1.732L16.876,5.127a10.39,10.39,0,0,0-8.735,0L5.363.833H16.256a.416.416,0,0,0,0-.833H.433a.416.416,0,1,0,0,.833H1.872L5.683,6.72a10.41,10.41,0,1,0,13.654,0L23.145.833h1.439a.416.416,0,0,0,0-.833ZM12.853,12.877,20.646.833h1.506l-3.692,5.7v0l-.007.01-4.922,7.608H12.024ZM2.864.833H4.372l7.64,11.81-.753,1.164ZM12.92,6.684c0-.008,0-.014,0-.022V5.008a9.451,9.451,0,0,1,3.494.824L15.5,7.258A7.818,7.818,0,0,0,12.92,6.684ZM8.6,5.832a9.448,9.448,0,0,1,3.494-.824V6.662c0,.007,0,.014,0,.021a7.821,7.821,0,0,0-2.577.573ZM6.137,7.425,7.059,8.85A7.922,7.922,0,0,0,5,12.075H3.264A9.528,9.528,0,0,1,6.137,7.425ZM17.957,8.85l.922-1.425a9.527,9.527,0,0,1,2.873,4.65h-1.74A7.918,7.918,0,0,0,17.957,8.85ZM9.981,7.97a7.127,7.127,0,0,1,5.055,0l-2.134,3.3a2.762,2.762,0,0,0-.784,0Zm4.682,9.171a3.336,3.336,0,0,0,.718-4.257c-.005-.009-.014-.014-.02-.023l2.134-3.3a7.071,7.071,0,1,1-9.973,0l2.136,3.3a3.336,3.336,0,0,0,5.005,4.276Zm4.605,1.521a7.845,7.845,0,0,0,.973-5.755h1.7a9.667,9.667,0,0,1,.146,1.666,9.521,9.521,0,0,1-1.606,5.3ZM2.931,14.574a9.644,9.644,0,0,1,.146-1.666h1.7a7.846,7.846,0,0,0,.973,5.754L4.537,19.874A9.519,9.519,0,0,1,2.931,14.574Zm10.826.416a.415.415,0,0,0,.144-.03l.03-.012a.423.423,0,0,0,.115-.077.81.81,0,0,0,.06-.072l.728-1.124a2.495,2.495,0,1,1-4.651,0L10.91,14.8a.388.388,0,0,0,.03.035.323.323,0,0,0,.029.035.774.774,0,0,0,.083.064.868.868,0,0,0,.1.042.437.437,0,0,0,.108.015Zm-.833,7.474a7.894,7.894,0,0,0,5.866-3.1l1.19,1.191a9.566,9.566,0,0,1-7.056,3.587ZM5.035,20.553l1.19-1.19a7.9,7.9,0,0,0,5.866,3.1V24.14h0A9.565,9.565,0,0,1,5.035,20.553ZM3.508,6.333h0C-.373,9.352,0,14.395.017,14.608a.412.412,0,0,0,.451.382.417.417,0,0,0,.382-.451C.844,14.49.5,9.728,4.02,6.991a.417.417,0,1,0-.511-.658Zm14.418,8.181c-.769,5.389-5.229,5.472-5.418,5.472a.416.416,0,0,0,0,.833c.054,0,5.368-.071,6.242-6.187a.416.416,0,1,0-.824-.118Zm5.753,3.8a.416.416,0,0,0-.319.281,9.266,9.266,0,0,1-5.154,5.577h0a.417.417,0,0,0,.263.791,9.979,9.979,0,0,0,5.672-6.082.416.416,0,0,0-.463-.566Z" opacity="0.3"/>
</svg>
