<svg xmlns="http://www.w3.org/2000/svg" width="25" height="21.484" viewBox="0 0 25 21.484">
  <path id="Union_4" data-name="Union 4" d="M5.21,21.484a1.464,1.464,0,0,1-1.441-1.2L2.107,11.142a.487.487,0,0,0-.415-.4.476.476,0,0,0-.066,0,.486.486,0,0,1-.3-.1,1.953,1.953,0,0,1,.625-3.8H4.841L9.283.724a1.465,1.465,0,0,1,2.545,1.452.52.52,0,0,1-.038.058l-3.484,4.6h8.388l-3.484-4.6a.5.5,0,0,1-.038-.058A1.465,1.465,0,0,1,15.718.724l4.442,6.111h2.888a1.953,1.953,0,0,1,.627,3.8.485.485,0,0,1-.3.1.45.45,0,0,0-.065,0,.487.487,0,0,0-.416.4l-1.661,9.138a1.464,1.464,0,0,1-1.441,1.2ZM3.068,10.968l1.661,9.139a.488.488,0,0,0,.481.4H19.79a.488.488,0,0,0,.48-.4l1.661-9.143a1.485,1.485,0,0,1,.06-.226H14.453a.486.486,0,1,1,0-.972h8.594a.977.977,0,0,0,0-1.953H1.953a.977.977,0,0,0,0,1.953h8.594a.488.488,0,1,1,0,.977H3.008A1.471,1.471,0,0,1,3.068,10.968Zm11.147-9.93a.488.488,0,0,0-.2.638l3.906,5.159h1.033l-4.04-5.559a.46.46,0,0,1-.032-.05.489.489,0,0,0-.665-.188Zm-4.095.189a.528.528,0,0,1-.032.05L6.048,6.835H7.081l3.906-5.159a.488.488,0,0,0-.867-.449Zm5.8,16.351V13.671a1.465,1.465,0,0,1,2.93,0v3.906a1.465,1.465,0,0,1-2.93,0Zm.977-3.906v3.906a.488.488,0,1,0,.977,0V13.671a.488.488,0,1,0-.977,0Zm-5.859,3.906V13.671a1.465,1.465,0,0,1,2.93,0v3.906a1.465,1.465,0,0,1-2.93,0Zm.977-3.906v3.906a.488.488,0,1,0,.977,0V13.671a.488.488,0,1,0-.977,0ZM6.152,17.578V13.671a1.465,1.465,0,0,1,2.93,0v3.906a1.465,1.465,0,0,1-2.93,0Zm.977-3.906v3.906a.488.488,0,0,0,.977,0V13.671a.488.488,0,0,0-.977,0Zm4.883-3.418a.488.488,0,1,1,.488.488A.488.488,0,0,1,12.012,10.253Z" opacity="0.3"/>
</svg>
